<svg width="113" height="62" viewBox="0 0 113 62" fill="none" xmlns="http://www.w3.org/2000/svg">
<g clip-path="url(#clip0_1075_94)">
<path d="M69.2435 18.5966C66.8746 19.6917 53.445 24.5097 40.2723 19.712C11.2462 9.14026 5.04916 42.3636 26.6508 38.3289C36.8534 36.4233 51.4413 10.7669 57.2124 6.00286C61.8294 2.19163 63.7303 6.00287 62.6762 8.19308C62.6762 8.19308 45.7768 32.8533 47.5535 39.9513" stroke="url(#paint0_linear_1075_94)" stroke-linecap="round"/>
<path d="M50.8147 61.8737C54.3681 62.4212 59.106 61.3261 64.4362 55.8506C69.7664 50.375 85.7569 27.3777 88.1258 27.3777M58.5138 42.7092C59.8957 41.6141 64.3178 39.4239 70.9509 39.4239C76.9421 39.4239 79.3602 41.6141 89.4283 41.6141M57.9901 55.8506C47.9223 53.3318 44.6554 45.1185 50.8147 37.2337C58.5138 27.3777 69.7667 26.2826 76.2812 26.2826C82.7957 26.2826 98.3119 29.0204 104.234 29.0204" stroke="url(#paint1_linear_1075_94)" stroke-linecap="round"/>
<path d="M50.9821 30.8821L50.9821 12.2653L56.2629 12.2653L65.7388 23.2164L63.3698 23.2164L63.3698 12.2653L69.8352 12.2653L69.8352 30.8821L64.5543 30.8821L55.0784 21.0261L57.4474 21.0261L57.4474 30.8821L50.9821 30.8821Z" fill="white"/>
<path d="M64.5543 30.8821L64.5543 12.2653L69.8352 12.2653L79.311 23.2164L76.9421 23.2164L76.9421 12.2653L83.4074 12.2653L83.4074 30.8821L78.1266 30.8821L68.6507 21.0261L71.0197 21.0261L71.0197 30.8821L64.5543 30.8821Z" fill="white"/>
<path d="M29.6121 30.8821L37.9034 12.2653L45.0103 12.2653L53.3017 30.8821L46.1948 30.8821L40.2724 15.5506L42.6414 15.5506L36.719 30.8821L29.6121 30.8821ZM35.5188 27.5968L37.9034 23.2164L45.0103 23.2164L46.1948 27.5968L35.5188 27.5968Z" fill="white"/>
<path d="M41.4568 30.6631C43.1561 30.6631 44.7354 30.919 46.1947 31.4306C47.6341 31.9422 48.8836 32.6624 49.9431 33.5909C51.0026 34.5384 51.8323 35.647 52.432 36.9166C53.0118 38.1863 53.3016 39.5696 53.3016 41.0667C53.3016 42.5827 53.0118 43.966 52.432 45.2167C51.8323 46.4864 51.0026 47.5855 49.9431 48.514C48.8836 49.4615 47.6341 50.1911 46.1947 50.7027C44.7354 51.2144 43.1561 51.4702 41.4568 51.4702C39.7376 51.4702 38.1583 51.2144 36.7189 50.7027C35.2795 50.1911 34.0301 49.4615 32.9705 48.514C31.911 47.5855 31.0914 46.4864 30.5116 45.2167C29.9119 43.966 29.612 42.5827 29.612 41.0667C29.612 39.5696 29.9119 38.1863 30.5116 36.9166C31.0914 35.647 31.911 34.5384 32.9705 33.5909C34.0301 32.6624 35.2795 31.9423 36.7189 31.4306C38.1583 30.919 39.7376 30.6631 41.4568 30.6631ZM41.4568 36.6862C38.471 36.6862 36.7189 38.5026 36.7189 41.0667C36.7189 43.6179 38.4876 45.4471 41.4568 45.4471C44.4413 45.4471 46.1947 43.6341 46.1947 41.0667C46.1947 38.4863 44.4578 36.6862 41.4568 36.6862Z" fill="white"/>
<path d="M71.069 31.9771L71.069 50.594L61.5508 50.594C57.0068 50.594 52.5409 48.2669 52.5409 43.5728C52.5409 38.4394 56.7889 36.3576 61.5931 36.3576L68.1124 36.3576L64.5543 39.2377L64.5543 31.9771L71.069 31.9771ZM59.8164 31.9771L64.9921 38.8833L57.0317 38.759L52.1173 31.9771L59.8164 31.9771ZM64.5543 38.5462L68.1124 41.2856L61.5931 41.2856C60.2229 41.2856 59.2225 42.0291 59.2242 43.4758C59.2258 44.9225 60.221 45.666 61.5931 45.666L68.1124 45.666L64.5543 48.5993L64.5543 38.5462Z" fill="white"/>
<path d="M79.3121 41.8331L72.2156 41.8331L72.2052 36.3576L79.3121 36.3576L79.3121 41.8331ZM78.1276 31.9771L84.05 31.9771L84.05 50.594L68.6518 50.594L68.6518 45.1184L78.1276 45.1184L78.1276 31.9771Z" fill="white"/>
</g>
<defs>
<linearGradient id="paint0_linear_1075_94" x1="6.91775" y1="31.5455" x2="61.2941" y2="2.45737" gradientUnits="userSpaceOnUse">
<stop stop-color="#FFA1A1"/>
<stop offset="0.458333" stop-color="#EDD1CD"/>
<stop offset="1" stop-color="#CDE052"/>
</linearGradient>
<linearGradient id="paint1_linear_1075_94" x1="40.7332" y1="53.5595" x2="95.7729" y2="23.6844" gradientUnits="userSpaceOnUse">
<stop stop-color="#FFA1A1"/>
<stop offset="0.458333" stop-color="#EDD1CD"/>
<stop offset="1" stop-color="#CDE052"/>
</linearGradient>
<clipPath id="clip0_1075_94">
<rect width="113" height="62" fill="white"/>
</clipPath>
</defs>
</svg>
