<svg width="1145" height="146" viewBox="0 0 1145 146" fill="none" xmlns="http://www.w3.org/2000/svg">
<path d="M328.418 1C290.186 1 254.503 27.7611 254.503 73C254.503 118.239 288.911 145 328.418 145C367.924 145 401.058 117.602 401.058 73C401.058 28.3982 366.649 1 328.418 1Z" stroke="url(#paint0_linear_1573_2078)" stroke-linecap="round" stroke-linejoin="round"/>
<path d="M662.5 142.451H565.371V4.18584H662.5V32.8584H598.506V58.3451H651.668V85.1062H598.506V113.779H662.5V142.451Z" stroke="url(#paint1_linear_1573_2078)" stroke-linecap="round" stroke-linejoin="round"/>
<path d="M1 4.18584V142.451H33.5V95H63C78.3333 94.6667 109 85 109 49C109 13 74 4.12389 56.5 4.18584H1Z" stroke="url(#paint2_linear_1573_2078)" stroke-linecap="round" stroke-linejoin="round"/>
<path d="M130.5 4.18584V142.451H163V91H175C176.494 90.9675 205.5 142 205.5 142L244 141.5L207.5 84.5C215.5 81.5 236.5 73 236.5 46C236.5 11 203.5 4.12389 186 4.18584H130.5Z" stroke="url(#paint3_linear_1573_2078)" stroke-linecap="round" stroke-linejoin="round"/>
<path d="M493 1C454.768 1 419.085 27.7611 419.085 73C419.085 118.239 451 146.5 493 145C517 143.5 531.5 139 545 128.5L530 101.258C520.981 109.499 507.018 113.053 493 113.053C469.424 113.053 453.494 99.1239 453.494 73C453.494 48.1504 470.061 33 493 33C504.86 33 517.021 36.6089 526 44.3796L541.67 18.5C528.506 7.19906 511.186 1 493 1Z" stroke="url(#paint4_linear_1573_2078)" stroke-linecap="round" stroke-linejoin="round"/>
<path d="M698 103L682.5 127C690.5 133.5 710.5 145 738 145C783.5 145 793 114.5 793 100.5C793 85.5 786 69.6855 752.5 60.5C729.274 54.1316 720.581 51.5 719 44.5C717.833 39.3333 720.4 29 740 29C759.6 29 771.5 37.6667 775 42L791 18.5C783 11.5 767 1.5 740 1.5C710.5 1.5 687.5 19.4568 687.5 44.5C687.5 61.5 698.5 76.6487 722 83C757 92.4595 760.5 96 761.5 103C762.207 107.95 759 117.5 739 117.5C718.2 117.5 703 107.833 698 103Z" stroke="url(#paint5_linear_1573_2078)" stroke-linecap="round" stroke-linejoin="round"/>
<path d="M824.5 103L809 127C817 133.5 837 145 864.5 145C910 145 919.5 114.5 919.5 100.5C919.5 85.5 912.5 69.6855 879 60.5C855.774 54.1316 847.081 51.5 845.5 44.5C844.333 39.3333 846.9 29 866.5 29C886.1 29 898 37.6667 901.5 42L917.5 18.5C909.5 11.5 893.5 1.5 866.5 1.5C837 1.5 814 19.4568 814 44.5C814 61.5 825 76.6487 848.5 83C883.5 92.4595 887 96 888 103C888.707 107.95 885.5 117.5 865.5 117.5C844.7 117.5 829.5 107.833 824.5 103Z" stroke="url(#paint6_linear_1573_2078)" stroke-linecap="round" stroke-linejoin="round"/>
<path d="M328.418 31.5841C305.479 31.5841 288.911 48.1505 288.911 73C288.911 99.1239 304.841 115.053 328.418 115.053C351.994 115.053 367.924 97.8496 367.924 73C367.924 48.1505 351.357 31.5841 328.418 31.5841Z" stroke="url(#paint7_linear_1573_2078)" stroke-linecap="round" stroke-linejoin="round"/>
<path d="M163 31.5V65H186C192.667 65 204 62 204 48C204 34 192.667 31.5 186 31.5H163Z" stroke="url(#paint8_linear_1573_2078)" stroke-linecap="round" stroke-linejoin="round"/>
<path d="M33.5 32.5V67.5H56.5C63.1667 67.5 76.5 64 76.5 50C76.5 36 63.1667 32.5 56.5 32.5H33.5Z" stroke="url(#paint9_linear_1573_2078)" stroke-linecap="round" stroke-linejoin="round"/>
<defs>
<linearGradient id="paint0_linear_1573_2078" x1="170.393" y1="127.796" x2="767.183" y2="-19.2876" gradientUnits="userSpaceOnUse">
<stop stop-color="#FFA1A1"/>
<stop offset="0.458333" stop-color="#EDD1CD"/>
<stop offset="1" stop-color="#CDE052"/>
</linearGradient>
<linearGradient id="paint1_linear_1573_2078" x1="170.393" y1="127.796" x2="767.183" y2="-19.2876" gradientUnits="userSpaceOnUse">
<stop stop-color="#FFA1A1"/>
<stop offset="0.458333" stop-color="#EDD1CD"/>
<stop offset="1" stop-color="#CDE052"/>
</linearGradient>
<linearGradient id="paint2_linear_1573_2078" x1="170.393" y1="127.796" x2="767.183" y2="-19.2876" gradientUnits="userSpaceOnUse">
<stop stop-color="#FFA1A1"/>
<stop offset="0.458333" stop-color="#EDD1CD"/>
<stop offset="1" stop-color="#CDE052"/>
</linearGradient>
<linearGradient id="paint3_linear_1573_2078" x1="170.393" y1="127.796" x2="767.183" y2="-19.2876" gradientUnits="userSpaceOnUse">
<stop stop-color="#FFA1A1"/>
<stop offset="0.458333" stop-color="#EDD1CD"/>
<stop offset="1" stop-color="#CDE052"/>
</linearGradient>
<linearGradient id="paint4_linear_1573_2078" x1="170.393" y1="127.796" x2="767.183" y2="-19.2876" gradientUnits="userSpaceOnUse">
<stop stop-color="#FFA1A1"/>
<stop offset="0.458333" stop-color="#EDD1CD"/>
<stop offset="1" stop-color="#CDE052"/>
</linearGradient>
<linearGradient id="paint5_linear_1573_2078" x1="170.393" y1="127.796" x2="767.183" y2="-19.2876" gradientUnits="userSpaceOnUse">
<stop stop-color="#FFA1A1"/>
<stop offset="0.458333" stop-color="#EDD1CD"/>
<stop offset="1" stop-color="#CDE052"/>
</linearGradient>
<linearGradient id="paint6_linear_1573_2078" x1="170.393" y1="127.796" x2="767.183" y2="-19.2876" gradientUnits="userSpaceOnUse">
<stop stop-color="#FFA1A1"/>
<stop offset="0.458333" stop-color="#EDD1CD"/>
<stop offset="1" stop-color="#CDE052"/>
</linearGradient>
<linearGradient id="paint7_linear_1573_2078" x1="170.393" y1="127.796" x2="767.183" y2="-19.2876" gradientUnits="userSpaceOnUse">
<stop stop-color="#FFA1A1"/>
<stop offset="0.458333" stop-color="#EDD1CD"/>
<stop offset="1" stop-color="#CDE052"/>
</linearGradient>
<linearGradient id="paint8_linear_1573_2078" x1="170.393" y1="127.796" x2="767.183" y2="-19.2876" gradientUnits="userSpaceOnUse">
<stop stop-color="#FFA1A1"/>
<stop offset="0.458333" stop-color="#EDD1CD"/>
<stop offset="1" stop-color="#CDE052"/>
</linearGradient>
<linearGradient id="paint9_linear_1573_2078" x1="170.393" y1="127.796" x2="767.183" y2="-19.2876" gradientUnits="userSpaceOnUse">
<stop stop-color="#FFA1A1"/>
<stop offset="0.458333" stop-color="#EDD1CD"/>
<stop offset="1" stop-color="#CDE052"/>
</linearGradient>
</defs>
</svg>
