<svg xmlns="http://www.w3.org/2000/svg" width="1192" height="146" fill="none"><path stroke="url(#a)" d="M361.53 1.39c24 .5 71.9 15 71.5 69-.5 67.5-67.5 70-71.5 70s-71.5-3-71.5-70c0-53.6 47.667-68.333 71.5-69Zm0 36.5c-21 0-31.5 17-31.5 32.5s7.5 34.5 31.5 34.5 31.5-19 31.5-34.5-10.5-32.5-31.5-32.5Z" clip-rule="evenodd"/><path stroke="url(#b)" d="M267.03 18.39c-6.833-6.833-28.1-19.8-58.5-17-38 3.5-63.528 33.434-62.5 73 1 38.5 26.5 65.5 72 65.5 28.5 0 44.5-10.5 52-15.5l-17-32.5c-5.833 3.833-19 11-33.5 10.5s-32-7-33.5-28 10-35.5 33.5-35.5c11.5 0 22 3.5 28.5 11l19-31.5Z"/><path stroke="url(#c)" d="M1020.53 18.39c-6.83-6.833-28.1-19.8-58.5-17-38 3.5-63.528 33.434-62.5 73 1 38.5 26.5 65.5 72 65.5 28.5 0 44.5-10.5 52-15.5l-17-32.5c-5.83 3.833-19 11-33.5 10.5s-32-7-33.5-28 10-35.5 33.5-35.5c11.5 0 22 3.5 28.5 11l19-31.5Z"/><path stroke="url(#d)" d="M469.53 136.39V3.89h38.5l47 71.5V3.89h37v132.5h-39l-47-73v73h-36.5Z"/><path stroke="url(#e)" d="M624.03 38.39V3.89h106.5v34.5h-34v98h-38.5v-98h-34Z"/><path stroke="url(#f)" d="m739.53 136.39 48.5-132.5h45.5l48.5 132.5h-43.5l-7.5-23.5h-41.5l-7.5 23.5h-42.5Zm71-92.5-13 37h25.5l-12.5-37Z" clip-rule="evenodd"/><path stroke="url(#g)" d="M1044.03 38.89V3.39h106.5v35.5h-34v97.5h-38.5v-97.5h-34Z"/><defs><linearGradient id="a" x1="22.255" x2="200.397" y1="107.451" y2="-332.78" gradientUnits="userSpaceOnUse"><stop stop-color="#FFA1A1"/><stop offset=".458" stop-color="#EDD1CD"/><stop offset="1" stop-color="#CDE052"/></linearGradient><linearGradient id="b" x1="22.255" x2="200.397" y1="107.451" y2="-332.78" gradientUnits="userSpaceOnUse"><stop stop-color="#FFA1A1"/><stop offset=".458" stop-color="#EDD1CD"/><stop offset="1" stop-color="#CDE052"/></linearGradient><linearGradient id="c" x1="22.255" x2="200.397" y1="107.451" y2="-332.78" gradientUnits="userSpaceOnUse"><stop stop-color="#FFA1A1"/><stop offset=".458" stop-color="#EDD1CD"/><stop offset="1" stop-color="#CDE052"/></linearGradient><linearGradient id="d" x1="22.255" x2="200.397" y1="107.451" y2="-332.78" gradientUnits="userSpaceOnUse"><stop stop-color="#FFA1A1"/><stop offset=".458" stop-color="#EDD1CD"/><stop offset="1" stop-color="#CDE052"/></linearGradient><linearGradient id="e" x1="22.255" x2="200.397" y1="107.451" y2="-332.78" gradientUnits="userSpaceOnUse"><stop stop-color="#FFA1A1"/><stop offset=".458" stop-color="#EDD1CD"/><stop offset="1" stop-color="#CDE052"/></linearGradient><linearGradient id="f" x1="22.255" x2="200.397" y1="107.451" y2="-332.78" gradientUnits="userSpaceOnUse"><stop stop-color="#FFA1A1"/><stop offset=".458" stop-color="#EDD1CD"/><stop offset="1" stop-color="#CDE052"/></linearGradient><linearGradient id="g" x1="22.255" x2="200.397" y1="107.451" y2="-332.78" gradientUnits="userSpaceOnUse"><stop stop-color="#FFA1A1"/><stop offset=".458" stop-color="#EDD1CD"/><stop offset="1" stop-color="#CDE052"/></linearGradient></defs></svg>