<svg width="175" height="102" viewBox="0 0 175 102" fill="none" xmlns="http://www.w3.org/2000/svg">
<path d="M108.975 98.3241C96.6149 101.024 71.459 103.326 48.4697 99.4088C25.4433 95.4851 4.85319 85.3791 1.13324 63.481C-0.734076 52.4887 1.64101 43.4781 6.77289 36.0448C11.9148 28.5968 19.8451 22.7038 29.1266 18.01C47.6957 8.61925 71.5266 4.09944 88.765 1.46676C105.912 -1.15188 129.022 1.60874 146.947 9.02385C155.909 12.731 163.533 17.5844 168.472 23.4701C173.398 29.3401 175.654 36.2321 173.92 44.09C170.408 60.0031 160.375 72.2056 148.101 81.1155C135.825 90.0273 121.333 95.6245 108.975 98.3241Z" stroke="url(#paint0_linear_924_899)"/>
<defs>
<linearGradient id="paint0_linear_924_899" x1="-21.5577" y1="77.8962" x2="142.29" y2="-18.5003" gradientUnits="userSpaceOnUse">
<stop stop-color="#FFA1A1"/>
<stop offset="0.458333" stop-color="#EDD1CD"/>
<stop offset="1" stop-color="#CDE052"/>
</linearGradient>
</defs>
</svg>
