<svg width="631" height="632" viewBox="0 0 631 632" fill="none" xmlns="http://www.w3.org/2000/svg">
<path d="M18.0932 314.891C-15.4144 258.067 -1.90431 205.71 54.6582 172.128L316.412 17.9427C372.908 -15.3832 425.513 -1.80902 458.83 54.6924L613.042 316.213C646.293 372.971 633.039 425.394 576.22 458.91L314.723 613.162C258.227 646.488 205.622 632.913 172.114 576.089L18.0932 314.891ZM253.553 440.799C266.896 444.242 281.391 440.044 292.26 430.804L454.945 287.189C462.709 280.433 466.815 273.006 468.67 265.82C473.769 246.058 460.161 226.67 440.402 221.571C427.058 218.128 415.519 222.541 403.027 233.826L276.078 352.445L249.606 300.174C244.35 289.784 237.074 282.979 226.04 280.132C206.281 275.034 185.305 286.319 180.139 306.338C177.755 315.577 178.467 323.425 184.037 334.717L223.48 414.151C229.936 427.314 239.439 437.157 253.553 440.799Z" fill="#FF93D7"/>
</svg>
