<svg width="58" height="146" viewBox="0 0 58 146" fill="none" xmlns="http://www.w3.org/2000/svg">
<path d="M27.3903 144.26C29.2462 137.541 29.2582 124.402 14.4595 125.598C-4.03891 127.093 2.52161 99.0317 8.8178 89.4433C15.114 79.855 1.93143 78.7865 2.05729 69.9898C2.18316 61.193 18.1936 49.1041 15.6678 41.1492C13.1421 33.1944 10.6667 21.7208 12.5393 13.8289C14.0374 7.51539 15.6268 3.02154 16.2342 1.5638C15.5848 5.95379 14.9596 16.8551 17.6537 25.3402C21.0214 35.9467 26.2617 38.6613 24.389 46.5532C22.5164 54.4451 30.3328 61.5958 34.0277 49.3307C37.7227 37.0655 29.8433 34.3132 37.8863 25.6297C43.2625 19.8254 43.2401 16.4008 42.2395 14.9061C42.0086 14.6686 41.784 14.4475 41.5686 14.2443C41.8077 14.3924 42.0425 14.6119 42.2395 14.9061C45.7302 18.4965 50.6436 25.8096 46.6075 31.0337C35.2651 45.7145 56.0649 46.4814 55.9189 56.6827C55.8308 62.8405 41.1145 72.514 47.7124 76.802C59.4628 84.4387 45.517 107.929 36.6276 113.597C27.7382 119.266 34.5385 136.62 27.3903 144.26Z" fill="#FF2A83" stroke="black" stroke-width="3" stroke-linecap="round" stroke-linejoin="round"/>
<path fill-rule="evenodd" clip-rule="evenodd" d="M39.4922 81.8144C39.837 84.5021 39.2357 87.2324 38.3885 89.5118C37.5393 91.7964 36.4123 93.7106 35.6107 94.7996C35.2833 95.2444 34.6573 95.3395 34.2125 95.0121C33.7678 94.6847 33.6726 94.0587 34 93.6139C37.5 89.875 39.4194 81.2473 39.4922 81.8144Z" fill="black"/>
<path fill-rule="evenodd" clip-rule="evenodd" d="M26 75.375C25.411 78.5218 28.3784 83.609 28.3287 87.083C28.2973 89.2747 27.6568 90.8548 26.6633 92.1199C25.7766 93.2489 24.6224 94.0993 23.5577 94.8838C23.4749 94.9447 23.3927 95.0053 23.3112 95.0656C22.1447 95.9283 21.0599 96.7695 20.1903 97.9436C19.336 99.0969 18.6573 100.619 18.4202 102.869C17.9293 107.528 18.7488 109.945 19.7886 111.603C20.2763 112.381 20.8253 113.016 21.4068 113.688C21.4717 113.763 21.5369 113.839 21.6026 113.915C22.2399 114.655 22.9134 115.465 23.4031 116.48C23.643 116.978 23.4342 117.576 22.9368 117.816C22.4393 118.055 21.8416 117.847 21.6017 117.349C21.2369 116.593 20.7213 115.956 20.0874 115.22C20.0233 115.146 19.9579 115.07 19.8914 114.994C19.3184 114.332 18.6683 113.582 18.0941 112.666C16.7684 110.551 15.904 107.664 16.4312 102.66C16.7032 100.078 17.5028 98.2117 18.5831 96.7532C19.6481 95.3154 20.9542 94.3212 22.122 93.4575C22.1869 93.4095 22.2513 93.362 22.315 93.3149C23.4344 92.4883 24.3782 91.7914 25.0904 90.8846C25.8052 89.9744 26.3036 88.8213 26.3289 87.0544C26.3697 84.2015 25.8149 82.3826 25.2987 80.6904C25.1299 80.1369 24.9652 79.5969 24.8268 79.0388C24.5455 77.9043 24.3968 76.7326 24.6549 75.3537C24.9099 73.9914 25.5475 72.5024 26.715 70.6925C28 68.7005 26.1884 74.3682 26 75.375Z" fill="black"/>
<path fill-rule="evenodd" clip-rule="evenodd" d="M18.8309 51.6291C19.75 51.629 19.8663 56.5828 20.046 57.7648C20.3122 59.5162 21.0426 61.2886 22.235 64.1821C22.2924 64.3214 22.3509 64.4633 22.4104 64.608C22.6207 65.1187 22.3772 65.7031 21.8665 65.9134C21.3558 66.1237 20.7713 65.8801 20.5611 65.3694C20.4825 65.1787 20.4054 64.9917 20.3296 64.808C19.1945 62.0566 18.3725 60.0642 18.0687 58.0654C17.9224 57.1029 18.0687 54.375 18.8309 51.6291Z" fill="black"/>
</svg>
