<svg width="38" height="87" viewBox="0 0 38 87" fill="none" xmlns="http://www.w3.org/2000/svg">
<path d="M9.93316 74.2091C19.7861 73.5732 19.7995 80.8245 18.5746 84.5296C23.3223 80.3246 18.7655 70.736 24.6759 67.6221C30.5864 64.5082 36.4091 54.0581 36.3862 46.3239C36.3673 39.9171 26.0121 39.5988 24.5675 30.9635C23.3193 23.502 18.0661 24.7848 15.8061 18.9257C13.9982 14.2384 16.3294 3.94659 16.7546 1.52485C16.3525 2.32837 10.5388 6.8963 9.28799 12.6943C8.33828 17.0967 8.90505 23.21 10.6 27.6043C12.2949 31.9987 1.65291 38.6443 1.58345 43.499C1.51398 48.3537 10.2944 48.9649 6.1172 54.2463C1.94004 59.5278 -2.38299 75.004 9.93316 74.2091Z" fill="#FF2A83" stroke="black" stroke-width="3" stroke-linecap="round" stroke-linejoin="round"/>
<path fill-rule="evenodd" clip-rule="evenodd" d="M21.5527 40.9053C21.1636 42.7762 23.145 45.8047 23.1154 47.8708C23.0967 49.1743 22.6718 50.1134 22.0115 50.8647C21.4221 51.5353 20.6544 52.0398 19.9461 52.5053C19.8911 52.5415 19.8364 52.5774 19.7822 52.6132C19.0062 53.1251 18.2847 53.6243 17.7068 54.3217C17.1391 55.0068 16.6886 55.9114 16.5331 57.2493C16.2109 60.0199 16.7591 61.4578 17.4532 62.4453C17.7788 62.9084 18.145 63.2864 18.5329 63.6869C18.5762 63.7315 18.6198 63.7765 18.6636 63.8219C19.0888 64.2625 19.538 64.745 19.8652 65.3495C20.0255 65.6456 19.8871 66.0009 19.556 66.143C19.225 66.2852 18.8267 66.1604 18.6665 65.8643C18.4228 65.4141 18.0787 65.0349 17.6559 64.5967C17.6131 64.5524 17.5695 64.5074 17.5251 64.4617C17.1429 64.0677 16.7092 63.6206 16.3259 63.0754C15.4409 61.8164 14.8623 60.0986 15.2083 57.1227C15.3868 55.5874 15.9174 54.4784 16.6353 53.6121C17.343 52.758 18.2118 52.1681 18.9886 51.6556C19.0318 51.6271 19.0746 51.599 19.117 51.571C19.8616 51.0805 20.4894 50.667 20.9628 50.1284C21.4379 49.5879 21.7686 48.9025 21.7836 47.8518C21.8079 46.1551 21.4366 45.0727 21.0911 44.0658C20.9781 43.7364 20.8679 43.4151 20.7752 43.083C20.5867 42.408 20.4865 41.711 20.6569 40.8912C20.8254 40.0813 21.2484 39.1963 22.0241 38.1211C22.8777 36.9377 21.6772 40.3067 21.5527 40.9053Z" fill="black"/>
<path fill-rule="evenodd" clip-rule="evenodd" d="M16.6722 28.4115C16.0664 28.394 15.8958 31.6895 15.7549 32.4729C15.5463 33.6337 15.0312 34.7997 14.1904 36.7032C14.15 36.7949 14.1087 36.8883 14.0667 36.9834C13.9184 37.3194 14.0679 37.7131 14.4005 37.8627C14.7331 38.0124 15.123 37.8613 15.2713 37.5254C15.3266 37.3999 15.3811 37.2769 15.4345 37.156C16.2348 35.346 16.8144 34.0353 17.0525 32.7105C17.1672 32.0725 17.1225 30.2539 16.6722 28.4115Z" fill="black"/>
</svg>
