<svg width="63" height="47" viewBox="0 0 63 47" fill="none" xmlns="http://www.w3.org/2000/svg">
<path d="M12.1207 4.07143C13.8256 2.67639 17.1659 4.73038 21.3926 4.40745C24.8759 4.14131 26.109 1.53543 30.122 1.81803C34.6197 2.13475 37.7769 4.34686 41.5159 5.1369C46.6103 6.21332 53.907 4.14549 54.2926 5.60002C54.9885 8.22493 53.4727 12.2981 53.189 16.2801C52.9723 19.3224 54.7556 24.0587 54.2311 26.0258C53.6423 28.2338 51.9675 31.8712 51.9186 35.7996C51.8668 39.952 53.4266 44.3401 52.1735 44.2947C50.7896 44.2445 47.2479 42.6876 43.6675 42.8374C40.9388 42.9516 38.4194 45.0583 35.4516 43.6885C32.2019 42.1886 31.2427 44.5268 26.9692 44.678C22.2192 44.8461 11.1404 44.1042 10.0401 44.0643C8.64033 44.0136 11.9812 41.4309 11.9154 36.4459C11.883 33.9868 10.3906 29.5472 11.3208 26.138C12.4526 21.99 9.55715 17.3101 9.55602 13.301C9.5549 9.33023 12.4551 6.01971 12.1207 4.07143Z" fill="#CDE052" stroke="black" stroke-width="3"/>
<path d="M28.4236 23.8481L28.4236 12.738L31.3678 12.738L36.6508 19.2734L35.33 19.2734L35.33 12.738L38.9346 12.738L38.9346 23.8481L35.9904 23.8481L30.7074 17.9663L32.0282 17.9663L32.0282 23.8481L28.4236 23.8481Z" fill="black"/>
<path d="M35.9905 23.8481L35.9905 12.738L38.9347 12.738L44.2177 19.2734L42.8969 19.2734L42.8969 12.738L46.5015 12.738L46.5015 23.8481L43.5573 23.8481L38.2743 17.9663L39.5951 17.9663L39.5951 23.8481L35.9905 23.8481Z" fill="black"/>
<path d="M16.5094 23.8481L21.132 12.738L25.0943 12.738L29.7169 23.8481L25.7546 23.8481L22.4528 14.6986L23.7735 14.6986L20.4716 23.8481L16.5094 23.8481ZM19.8025 21.8875L21.132 19.2734L25.0943 19.2734L25.7546 21.8875L19.8025 21.8875Z" fill="black"/>
<path d="M23.1132 23.7174C24.0605 23.7174 24.941 23.8701 25.7547 24.1754C26.5572 24.4807 27.2537 24.9105 27.8445 25.4646C28.4352 26.0301 28.8977 26.6916 29.2321 27.4493C29.5553 28.207 29.7169 29.0326 29.7169 29.926C29.7169 30.8307 29.5553 31.6562 29.2321 32.4026C28.8977 33.1603 28.4352 33.8162 27.8445 34.3703C27.2537 34.9358 26.5572 35.3712 25.7547 35.6765C24.941 35.9819 24.0605 36.1345 23.1132 36.1345C22.1547 36.1345 21.2742 35.9819 20.4717 35.6765C19.6692 35.3712 18.9726 34.9358 18.3819 34.3703C17.7912 33.8162 17.3342 33.1603 17.011 32.4026C16.6766 31.6562 16.5094 30.8307 16.5094 29.926C16.5094 29.0326 16.6766 28.207 17.011 27.4493C17.3342 26.6916 17.7912 26.0301 18.3819 25.4646C18.9726 24.9105 19.6692 24.4807 20.4717 24.1754C21.2742 23.8701 22.1547 23.7174 23.1132 23.7174ZM23.1132 27.3118C21.4485 27.3118 20.4717 28.3958 20.4717 29.926C20.4717 31.4485 21.4577 32.5401 23.1132 32.5401C24.7771 32.5401 25.7547 31.4581 25.7547 29.926C25.7547 28.3861 24.7863 27.3118 23.1132 27.3118Z" fill="black"/>
<path d="M39.6226 24.5016L39.6226 35.6117L34.3159 35.6117C31.7826 35.6117 29.2928 34.223 29.2928 31.4216C29.2928 28.3582 31.6611 27.1158 34.3396 27.1158L37.9742 27.1158L35.9905 28.8346L35.9905 24.5016L39.6226 24.5016ZM33.349 24.5016L36.2346 28.6231L31.7965 28.5489L29.0566 24.5016L33.349 24.5016ZM35.9905 28.4219L37.9742 30.0567L34.3396 30.0567C33.5756 30.0567 33.0179 30.5004 33.0188 31.3637C33.0197 32.2271 33.5746 32.6708 34.3396 32.6708L37.9742 32.6708L35.9905 34.4213L35.9905 28.4219Z" fill="black"/>
<path d="M44.2182 30.3834L40.2618 30.3834L40.256 27.1158L44.2182 27.1158L44.2182 30.3834ZM43.5579 24.5016L46.8597 24.5016L46.8597 35.6117L38.2749 35.6117L38.2749 32.344L43.5579 32.344L43.5579 24.5016Z" fill="black"/>
</svg>
