<svg width="170" height="86" viewBox="0 0 170 86" fill="none" xmlns="http://www.w3.org/2000/svg">
<path d="M74.6936 85.4391C60.6812 85.6195 44.394 85.7036 30.572 80.9964C23.6711 78.6462 17.4024 75.1065 12.345 69.8005C7.28971 64.4968 3.4228 57.4052 1.35726 47.9157C-0.697971 38.4736 1.05086 30.6622 5.43848 24.2836C9.83703 17.8892 16.9157 12.8952 25.5806 9.16837C42.9147 1.71279 66.444 -0.605599 86.9671 0.966711C107.515 2.54089 129.947 6.63247 146.248 13.7604C154.401 17.3255 160.974 21.6304 165.024 26.718C169.055 31.7825 170.594 37.6299 168.687 44.3735C164.848 57.9507 150.192 68.1196 131.949 74.9559C113.744 81.778 92.14 85.2146 74.6936 85.4391Z" stroke="url(#paint0_linear_924_898)"/>
<defs>
<linearGradient id="paint0_linear_924_898" x1="-20.9418" y1="65.6772" x2="125.863" y2="-33.8345" gradientUnits="userSpaceOnUse">
<stop stop-color="#CDE052"/>
<stop offset="0.40625" stop-color="#EDD1CD"/>
<stop offset="0.890625" stop-color="#FFA1A1"/>
</linearGradient>
</defs>
</svg>
